<svg width="132" height="108" viewBox="0 0 132 108" fill="none" xmlns="http://www.w3.org/2000/svg">
<path fill-rule="evenodd" clip-rule="evenodd" d="M60.5553 44.3505C60.5553 47.0496 60.5553 49.3758 60.4103 50.6082C60.2903 51.4617 60.1448 52.1063 59.5566 52.2265C59.2911 52.2833 58.937 52.3402 58.501 52.3402C58.1469 52.3402 58.0337 52.4288 58.0337 52.5741C58.0337 52.7827 58.2356 52.8648 58.6215 52.8648C59.2097 52.8648 59.9743 52.8077 60.6502 52.8077C61.3522 52.7762 62.003 52.7762 62.3258 52.7762C62.7681 52.7762 63.6464 52.8077 64.5256 52.8648C65.3788 52.8964 66.232 52.9532 66.5799 52.9532C71.9839 52.9532 74.4178 49.6916 74.4178 46.5502C74.4178 43.1179 71.4785 41.032 69.0701 40.2104C70.6821 38.9207 72.0663 37.4797 72.0663 35.0713C72.0663 33.5164 71.1244 30.6658 65.8085 30.6658C64.8098 30.6658 63.6661 30.7544 62.2247 30.7544C61.6364 30.7544 59.7907 30.6658 58.2293 30.6658C57.7871 30.6658 57.5847 30.7226 57.5847 30.9312C57.5847 31.1398 57.762 31.1967 58.0843 31.1967C58.4948 31.1967 58.9944 31.2282 59.2285 31.2851C60.1954 31.4937 60.4296 31.9615 60.4927 32.9604C60.5495 33.9021 60.5495 34.7237 60.5495 39.1864V44.3505H60.5553ZM64.0766 32.4291C64.0766 32.1067 64.1329 31.9865 64.3416 31.9297C64.6388 31.8728 64.898 31.8728 65.3089 31.8728C67.831 31.8728 68.9815 34.458 68.9815 36.4239C68.9815 37.8651 68.5387 38.9207 67.7742 39.5337C67.2751 39.9762 66.63 40.0902 65.6568 40.0902C64.9804 40.0902 64.5439 40.0584 64.2784 40.0015C64.1585 39.97 64.0698 39.9131 64.0698 39.6792V32.4291H64.0766ZM70.8016 47.8775C70.8016 50.9305 68.5701 51.6385 67.249 51.6385C66.5726 51.6385 65.8967 51.6069 65.1066 51.2846C64.171 50.9052 64.0824 50.4058 64.0824 48.4653V41.5059C64.0824 41.3604 64.1392 41.3035 64.2597 41.3035C64.7019 41.3035 64.9929 41.3035 65.5238 41.3351C66.668 41.3919 67.3444 41.6005 67.9635 42.043C70.1825 43.5857 70.8016 46.0571 70.8016 47.8775Z" fill="#CCAF6B"/>
<path fill-rule="evenodd" clip-rule="evenodd" d="M64.6008 1.28566C64.1711 1.19076 63.722 1.31746 63.6777 1.8674L63.6589 2.31617C62.4516 1.46922 63.3747 0.35681 64.6827 0.932045L64.7333 0.76752C64.7839 0.603236 64.7651 0.647559 64.7964 0.546387C64.8282 0.457741 64.8662 0.344043 64.9925 0.230345C65.2647 -0.0225843 65.4352 -0.0160804 65.732 0.0154756L65.4916 0.445215C65.283 0.963601 65.5928 1.43766 65.8018 2.10781C66.0105 1.43766 66.3198 0.963601 66.1116 0.445215L65.8712 0.0154756C66.168 -0.0160804 66.3385 -0.0160804 66.6107 0.230345C66.7307 0.344284 66.7688 0.457982 66.8006 0.546387C66.8381 0.647559 66.8193 0.60974 66.8637 0.76752L66.9143 0.932045C68.2223 0.35681 69.1391 1.46296 67.938 2.31617L67.9192 1.8674C67.8749 1.31096 67.4264 1.191 66.9966 1.28566C66.036 1.50053 66.023 2.50575 65.9599 3.27682V3.30862L65.9411 3.32741C65.8968 3.41605 65.8462 3.44761 65.7893 3.43484C65.7387 3.44761 65.6882 3.41605 65.6438 3.33367L65.625 3.30862V3.25803C65.5677 2.49322 65.5484 1.50078 64.6008 1.28566Z" fill="#CCAF6B"/>
<path fill-rule="evenodd" clip-rule="evenodd" d="M64.6008 82.415C64.1711 82.5096 63.722 82.3832 63.6777 81.8335L63.6589 81.3847C62.4516 82.2382 63.3747 83.3443 64.6827 82.7691L64.7333 82.9334C64.7839 83.0916 64.7651 83.0533 64.7964 83.1545C64.8282 83.2429 64.8662 83.3566 64.9925 83.4703C65.2647 83.7232 65.4352 83.717 65.732 83.6854L65.4916 83.2554C65.283 82.7373 65.5928 82.2632 65.8018 81.5931C66.0105 82.2632 66.3198 82.7373 66.1116 83.2554L65.8712 83.6854C66.168 83.717 66.3385 83.717 66.6107 83.4703C66.7307 83.3566 66.7688 83.2429 66.8006 83.1545C66.8381 83.0533 66.8193 83.0911 66.8637 82.9334L66.9143 82.7691C68.2223 83.3443 69.1391 82.2317 67.938 81.3847L67.9192 81.8335C67.8749 82.3897 67.4264 82.5096 66.9966 82.415C66.036 82.1999 66.023 81.1949 65.9599 80.4238V80.392L65.9411 80.3732C65.8968 80.2848 65.8462 80.2533 65.7893 80.2655C65.7387 80.2593 65.6882 80.2846 65.6438 80.3667L65.625 80.392V80.4426C65.5677 81.2077 65.5484 82.2066 64.6008 82.415Z" fill="#CCAF6B"/>
<path fill-rule="evenodd" clip-rule="evenodd" d="M100.472 63.1679C100.339 63.5912 100.011 63.9137 99.5049 63.6736L99.1069 63.4649C99.2394 64.9315 100.662 64.6913 100.813 63.2689L100.984 63.3069C101.149 63.345 101.104 63.345 101.212 63.3575C101.307 63.3763 101.42 63.4016 101.578 63.351C101.933 63.2373 102.014 63.0921 102.134 62.8138L101.648 62.8076C101.091 62.7254 100.839 62.2258 100.364 61.7077C101.054 61.8592 101.61 61.8279 101.958 62.2702L102.21 62.6936C102.387 62.4535 102.475 62.308 102.394 61.9413C102.356 61.7771 102.28 61.6884 102.216 61.6128C102.147 61.5306 102.172 61.5685 102.058 61.4483L101.945 61.322C103.101 60.4751 102.595 59.1223 101.255 59.7418L101.635 59.9882C102.096 60.3043 101.976 60.7531 101.679 61.0756C101.015 61.8024 100.136 61.3093 99.435 60.9807L99.4095 60.9679L99.3844 60.9742C99.2833 60.9679 99.2327 60.9995 99.2139 61.0501C99.1758 61.0942 99.1758 61.151 99.2327 61.2334L99.2452 61.2649L99.2833 61.2902C99.9158 61.7205 100.769 62.2323 100.472 63.1679Z" fill="#CCAF6B"/>
<path fill-rule="evenodd" clip-rule="evenodd" d="M31.8838 20.3054C32.0162 19.8819 32.3453 19.5594 32.8512 19.7998L33.2491 20.0084C33.1166 18.5419 31.6944 18.7821 31.5422 20.198L31.3716 20.1664C31.2074 20.1284 31.2517 20.1284 31.1442 20.1158C31.0493 20.0968 30.9356 20.0715 30.7776 20.1221C30.4235 20.236 30.3416 20.3813 30.2154 20.6593L30.7082 20.6658C31.2647 20.7479 31.5171 21.2473 31.9912 21.7657C31.309 21.6141 30.7458 21.6455 30.3985 21.2032L30.1455 20.7797C29.9687 21.0199 29.8801 21.1654 29.9625 21.5318C30 21.6963 30.0762 21.7784 30.1397 21.8543C30.2091 21.9364 30.1841 21.8984 30.2978 22.0249L30.4115 22.1513C29.2547 22.9983 29.7601 24.3508 31.1004 23.725L30.7212 23.4851C30.2597 23.1691 30.3797 22.72 30.6769 22.3915C31.3403 21.6645 32.2196 22.1638 32.921 22.4864L32.9461 22.4992L32.9716 22.4927C33.0728 22.4992 33.1234 22.4739 33.1421 22.417C33.1802 22.3727 33.1802 22.3158 33.1234 22.2337L33.1108 22.2019L33.066 22.1769C32.4465 21.7529 31.5933 21.2345 31.8838 20.3054Z" fill="#CCAF6B"/>
<path fill-rule="evenodd" clip-rule="evenodd" d="M30.2971 61.3978C29.9998 61.0692 29.8862 60.6267 30.3414 60.3044L30.7206 60.0642C29.3808 59.4447 28.8812 60.7975 30.0316 61.638L29.9179 61.7644C29.8042 61.8906 29.8298 61.8531 29.7599 61.9352C29.6963 62.0108 29.6207 62.0995 29.5826 62.2638C29.5003 62.6306 29.5889 62.7759 29.7657 63.0161L30.0186 62.5926C30.366 62.1563 30.9287 62.1816 31.6114 62.0301C31.1373 62.5483 30.8849 63.0539 30.3284 63.13L29.8356 63.1363C29.9555 63.4082 30.0374 63.5597 30.3915 63.6674C30.55 63.718 30.6637 63.6927 30.7649 63.6802C30.8656 63.6611 30.828 63.6611 30.986 63.6296L31.1561 63.5915C31.3146 65.0137 32.7305 65.2539 32.863 63.7876L32.4651 63.996C31.9592 64.2361 31.6306 63.9076 31.4977 63.4904C31.2067 62.555 32.0729 62.0366 32.705 61.5944L32.7305 61.5753L32.7368 61.55C32.7869 61.4679 32.7932 61.411 32.7556 61.367C32.7368 61.3164 32.6862 61.2846 32.5913 61.2911L32.5595 61.2846L32.5152 61.3036C31.8267 61.638 30.9605 62.1185 30.2971 61.3978Z" fill="#CCAF6B"/>
<path fill-rule="evenodd" clip-rule="evenodd" d="M101.755 22.3789C102.052 22.7012 102.166 23.1502 101.71 23.4725L101.331 23.7127C102.671 24.332 103.171 22.9794 102.02 22.1388L102.134 22.0123C102.248 21.8861 102.223 21.9239 102.292 21.8417C102.356 21.7659 102.431 21.6772 102.469 21.5194C102.552 21.1526 102.463 21.0073 102.286 20.7672L102.033 21.1906C101.686 21.6269 101.123 21.6016 100.441 21.7531C100.915 21.2347 101.168 20.7354 101.723 20.6532L102.217 20.647C102.097 20.375 102.014 20.2235 101.66 20.1158C101.502 20.0652 101.382 20.0905 101.287 20.1095C101.18 20.1283 101.224 20.1283 101.06 20.1664L100.889 20.2044C100.731 18.782 99.3151 18.5419 99.1826 20.0084L99.5806 19.806C100.086 19.5659 100.415 19.8944 100.548 20.3116C100.845 21.2472 99.9785 21.7654 99.3469 22.2079L99.3214 22.2267L99.3084 22.252C99.2578 22.3341 99.252 22.391 99.2896 22.4353C99.3084 22.4859 99.3589 22.5174 99.4539 22.5109L99.4857 22.5174L99.53 22.4921C100.225 22.1388 101.098 21.6584 101.755 22.3789Z" fill="#CCAF6B"/>
<path fill-rule="evenodd" clip-rule="evenodd" d="M68.7593 3.6184C68.0328 4.0797 67.1666 4.70552 66.4521 5.43227C67.0592 6.19082 67.4952 7.03777 67.5901 7.94808C67.7038 9.02893 67.0466 10.6409 65.795 10.3627C64.5433 10.6409 63.8862 9.03544 63.9999 7.94808C64.0948 7.03777 64.5308 6.19082 65.1374 5.43227C64.4234 4.70552 63.5572 4.0797 62.8307 3.6184C60.2007 6.34258 59.4679 10.6409 62.173 13.5993C63.1086 14.623 64.3916 15.4639 65.795 16.0011C67.1921 15.47 68.4813 14.6233 69.4169 13.5993C72.1288 10.6409 71.3956 6.34258 68.7593 3.6184ZM97.5071 20.0841C97.4695 20.9438 97.3621 22.0057 97.0903 22.9919C96.1297 22.8464 95.1753 22.8907 94.3409 23.2636C93.3417 23.7061 92.2803 25.0777 93.1456 26.026C93.5252 27.2459 95.2509 27.012 96.1292 26.3736C96.8687 25.8362 97.3808 25.0334 97.7412 24.1296C98.7274 24.3885 99.7006 24.8185 100.466 25.2232C99.4226 28.8639 96.0666 31.6514 92.1536 30.7792C90.8008 30.4822 89.4292 29.793 88.2662 28.8449C88.0258 27.3659 88.1207 25.83 88.5384 24.5087C89.7448 20.6847 93.8283 19.1678 97.5071 20.0841ZM96.7675 23.9337C96.4833 24.6101 96.0916 25.1916 95.5607 25.5773C95.3203 25.7543 94.4671 26.0957 94.1636 25.8427L94.0311 25.5077L93.8032 25.2232C93.7401 24.831 94.4608 24.2685 94.7321 24.1483C95.3391 23.8896 96.041 23.8453 96.7675 23.9337ZM98.0442 23.1942C98.3603 22.0122 98.474 20.7543 98.4933 19.724L98.499 19.3511L98.1449 19.2499C93.8784 17.9858 89.0178 19.743 87.6014 24.2119C87.254 25.3243 87.1085 26.5635 87.1716 27.8021C86.3627 26.9046 85.7495 25.868 85.4527 24.7556C84.8712 22.5937 86.3565 20.3498 87.1716 18.4158C87.7975 16.9302 88.2715 15.1477 88.3096 13.5422C88.3602 11.5447 87.4939 9.74316 85.6989 8.78251C85.3954 8.61822 85.073 8.492 84.7445 8.39058C84.6496 8.32121 84.5484 8.25159 84.4472 8.19474C82.7153 7.11991 80.7241 7.27191 79.0177 8.31495C77.6461 9.1554 76.3371 10.4576 75.3639 11.7408C74.0935 13.4094 72.8924 15.8176 70.7307 16.3993C69.6183 16.6963 68.411 16.6838 67.2287 16.4374C68.3349 15.8749 69.3341 15.1289 70.1242 14.2694C73.2909 10.8117 72.3803 5.7235 69.1505 2.65775L68.8851 2.39856L68.569 2.58814C67.684 3.12555 66.6477 3.84604 65.7878 4.71202C64.9283 3.84604 63.892 3.12555 63.007 2.58814L62.6909 2.39856L62.4187 2.65775C59.1889 5.72326 58.2851 10.8055 61.4518 14.2694C62.2419 15.1289 63.2406 15.8749 64.3468 16.4374C63.1645 16.6838 61.9572 16.6963 60.8515 16.3993C58.6898 15.8176 57.4888 13.4094 56.2183 11.7408C55.2447 10.4576 53.9362 9.1554 52.5646 8.31495C50.8577 7.27191 48.867 7.12666 47.135 8.19474C46.9963 8.27689 46.8628 8.3718 46.7366 8.46646C46.661 8.50452 46.5853 8.54234 46.516 8.58016C44.7204 9.54105 43.8547 11.3426 43.9052 13.3398C43.9428 14.9453 44.4232 16.7279 45.0427 18.2134C45.8583 20.1475 47.3436 22.3916 46.7617 24.5533C46.4649 25.6657 45.8516 26.7022 45.0427 27.5998C45.1058 26.3609 44.9608 25.122 44.613 24.0096C43.2033 19.5407 38.3427 17.7834 34.0762 19.0476L33.7221 19.155L33.7278 19.5279C33.7471 20.5582 33.8545 21.8161 34.1769 22.9981C32.9946 23.3142 31.8509 23.8453 30.9466 24.3447L30.618 24.528L30.7067 24.8881C31.7492 29.218 35.6997 32.5492 40.2761 31.5315C41.4203 31.2786 42.5582 30.7855 43.6013 30.1093C43.2279 31.2533 42.6339 32.3088 41.8187 33.1242C40.2385 34.7044 37.5521 34.5401 35.4661 34.8056C33.8671 35.0079 32.0845 35.4883 30.6749 36.2596C28.9174 37.214 27.7924 38.8636 27.8555 40.899C27.8618 41.0445 27.8685 41.1835 27.8873 41.3288C27.7356 41.7966 27.6469 42.2834 27.6349 42.7765C27.5713 44.8117 28.6967 46.4616 30.4537 47.416C31.8634 48.1873 33.6459 48.6676 35.2449 48.8699C37.3243 49.1354 40.0111 48.9711 41.5976 50.5513C42.4132 51.3667 43.0005 52.416 43.3801 53.5602C42.3371 52.8838 41.1929 52.3907 40.0549 52.1378C35.4786 51.1266 31.5281 54.4578 30.4855 58.7812L30.3969 59.1415L30.7259 59.3246C31.6297 59.8242 32.7735 60.3614 33.9557 60.6712C33.6397 61.8532 33.5322 63.1111 33.5072 64.1414L33.5009 64.5142L33.855 64.6217C38.1216 65.8861 42.9822 64.1288 44.3918 59.6534C44.7459 58.541 44.8852 57.3019 44.8216 56.0633C45.631 56.9608 46.2438 57.9973 46.541 59.1097C47.122 61.2717 45.6367 63.5155 44.8216 65.4496C44.1958 66.9349 43.7217 68.7177 43.6774 70.3295C43.6268 72.3269 44.4993 74.1285 46.2881 75.0891C46.5535 75.2281 46.8315 75.3481 47.1163 75.443L47.135 75.4557C48.867 76.5238 50.8577 76.3788 52.5646 75.3355C53.9362 74.5014 55.2447 73.1929 56.2183 71.9097C57.4888 70.2345 58.6898 67.8264 60.8515 67.2512C61.9639 66.9542 63.1713 66.9667 64.3468 67.2131C63.2406 67.7756 62.2419 68.5216 61.4518 69.3811C58.2851 72.8388 59.1952 77.927 62.4187 80.9925L62.6909 81.2519L63.007 81.0558C63.892 80.5249 64.9283 79.7982 65.7878 78.932C66.654 79.7982 67.6908 80.5184 68.569 81.0558L68.8851 81.2519L69.1505 80.9925C72.3803 77.927 73.2909 72.8385 70.1242 69.3811C69.3341 68.5214 68.3349 67.7756 67.2287 67.2129C68.411 66.9665 69.6183 66.9539 70.7307 67.2509C72.8924 67.8327 74.0935 70.2408 75.3639 71.9094C76.3371 73.1926 77.6461 74.4948 79.0177 75.3355C80.7241 76.3783 82.7153 76.5238 84.4472 75.4555C84.6303 75.3418 84.8139 75.2091 84.9844 75.0763C85.2055 74.9942 85.4146 74.8993 85.6232 74.7856C87.4183 73.8247 88.2845 72.0234 88.2339 70.0259C88.1896 68.4204 87.7156 66.6379 87.0897 65.1526C86.2741 63.2185 84.7888 60.9744 85.3703 58.8127C85.6676 57.7003 86.2804 56.6638 87.0897 55.766C87.0261 57.0051 87.1654 58.244 87.5195 59.3564C88.9291 63.8253 93.7897 65.5823 98.0563 64.3184L98.4104 64.211L98.4041 63.8381C98.3853 62.8078 98.2779 61.5499 97.9556 60.3676C99.1379 60.0518 100.282 59.5207 101.185 59.0213L101.514 58.8443L101.426 58.4839C100.383 54.154 96.4322 50.8228 91.8559 51.8405C90.7184 52.0935 89.5742 52.5866 88.5312 53.2627C88.9104 52.1188 89.4986 51.0632 90.3138 50.2478C91.894 48.6676 94.5803 48.8319 96.6664 48.5664C98.2654 48.3641 100.048 47.8838 101.458 47.1127C103.215 46.158 104.34 44.5085 104.276 42.473C104.27 42.3215 104.258 42.1695 104.245 42.018C104.308 41.7144 104.346 41.4112 104.359 41.1076C104.422 39.0724 103.297 37.4226 101.539 36.468C100.13 35.6969 98.3478 35.2166 96.7483 35.0142C94.6622 34.755 91.9759 34.913 90.3957 33.3328C89.5868 32.5174 88.9927 31.4681 88.6198 30.3239C89.6624 31.0003 90.8066 31.4934 91.9445 31.7461C96.5209 32.7576 100.471 29.4264 101.514 25.103L101.603 24.7426L101.274 24.5656C100.371 24.0412 99.2265 23.5102 98.0442 23.1942ZM87.3687 29.3573C87.716 31.1205 88.4999 32.7894 89.7135 34.0092C91.5461 35.8424 94.2455 35.6653 96.6283 35.9688C98.1078 36.1521 99.7762 36.6009 101.078 37.3089C101.906 37.7577 102.57 38.3897 102.968 39.1673C102.659 38.8322 102.305 38.5415 101.9 38.3139C101.369 38.0168 100.781 37.8398 100.174 37.8145C96.173 37.6312 94.7701 42.8521 97.9493 45.0835C98.5814 45.526 99.359 45.7726 100.25 45.7346C100.864 45.703 101.445 45.5322 101.976 45.2352C102.235 45.0897 102.469 44.9192 102.69 44.7296C102.285 45.3489 101.704 45.8608 101.002 46.2404C99.7001 46.9482 98.0317 47.3972 96.5527 47.5805C94.1694 47.8838 91.4642 47.7067 89.6373 49.5398C88.4238 50.7534 87.6399 52.4223 87.2926 54.1921C85.9398 55.3741 84.8842 56.8847 84.4352 58.547C83.765 61.0503 85.2696 63.3067 86.1989 65.5192C86.7742 66.8908 87.2227 68.5532 87.2608 70.0385C87.2796 70.9045 87.1027 71.7198 86.7111 72.4153C86.7992 72.0549 86.8498 71.682 86.8436 71.3091C86.8378 70.6961 86.6923 70.1083 86.4138 69.5646C83.9741 64.8491 76.6801 69.059 79.5495 73.5342C79.8781 74.0461 80.3209 74.4698 80.8455 74.7793C81.1553 74.9626 81.4901 75.1016 81.8317 75.2028C81.0474 75.19 80.2573 74.9374 79.5308 74.4883C78.2661 73.7173 77.0463 72.4909 76.1492 71.3091C74.6952 69.3936 73.5004 66.9665 70.9976 66.2966C69.335 65.8475 67.5019 66.0121 65.8017 66.5936C64.1011 66.0121 62.2617 65.854 60.6054 66.2966C58.1026 66.9665 56.9015 69.3936 55.448 71.3091C54.55 72.4912 53.3301 73.7173 52.0664 74.4883C51.8892 74.6023 51.6998 74.697 51.5163 74.7854C51.8516 74.5201 52.1421 74.1976 52.3762 73.831C55.2394 69.3686 47.6669 64.7477 45.1829 69.5581C44.9044 70.1016 44.7594 70.6958 44.7532 71.3026V71.4354C44.6896 71.0815 44.6583 70.7146 44.6645 70.3417C44.7026 68.8564 45.1516 67.1878 45.7268 65.8222C46.6557 63.6037 48.1602 61.3533 47.4901 58.8503C47.0416 57.188 45.986 55.6836 44.6332 54.4953C44.2854 52.7318 43.5083 51.063 42.2942 49.8431C40.4616 48.01 37.7622 48.187 35.3731 47.8838C33.9003 47.7004 32.2315 47.2514 30.9235 46.5435C29.6973 45.8736 28.8374 44.8178 28.6538 43.4842C29.0523 44.1163 29.5894 44.66 30.2533 45.0329C30.7842 45.3299 31.372 45.5069 31.979 45.5322C37.2 45.7787 37.2313 37.8711 31.7579 38.124C31.1446 38.1556 30.5631 38.3201 30.0259 38.6234C29.6843 38.8195 29.3683 39.0596 29.0903 39.3379C29.4569 38.3897 30.1902 37.6312 31.1446 37.1065C32.4468 36.3986 34.1152 35.9561 35.5947 35.7665C37.9775 35.463 40.6827 35.64 42.5096 33.8069C43.7231 32.5933 44.507 30.9247 44.8543 29.1547C46.2072 27.9726 47.2627 26.4621 47.7117 24.7997C48.3819 22.2967 46.8773 20.04 45.9484 17.8278C45.3732 16.4559 44.9242 14.7873 44.8861 13.3083C44.9555 13.5672 45.0567 13.8201 45.1834 14.0668C47.6231 18.7821 55.4865 14.3197 52.5974 9.81277C52.4331 9.55358 52.237 9.31318 52.0159 9.10481L52.0607 9.13637C53.3248 9.90768 54.5447 11.1338 55.4422 12.3158C56.8957 14.2311 58.0968 16.6583 60.5996 17.3284C62.2622 17.7709 64.0953 17.6129 65.7955 17.0311C67.4961 17.6129 69.3355 17.7709 70.9919 17.3284C73.4947 16.6583 74.6957 14.2311 76.1434 12.3158C77.041 11.1338 78.2608 9.90744 79.525 9.13637C80.1951 8.72542 80.9154 8.47899 81.6361 8.43491C81.3894 8.52331 81.1428 8.63725 80.9154 8.776C80.3907 9.08578 79.948 9.50926 79.6194 10.0211C76.7244 14.5406 83.9553 18.8137 86.408 14.0728C86.686 13.5294 86.8315 12.9351 86.8378 12.3283C86.8436 11.8165 86.7554 11.3169 86.5911 10.8365C87.1158 11.5888 87.3557 12.5244 87.3306 13.5169C87.293 15.0022 86.8436 16.6708 86.2688 18.0361C85.3395 20.2487 83.8349 22.505 84.505 25.0083C84.9603 26.6644 86.0091 28.1752 87.3687 29.3573ZM103.259 41.9548C103.006 42.9535 102.393 43.8764 101.496 44.382C101.098 44.6034 100.661 44.7361 100.2 44.7549C96.3691 44.9322 96.161 38.6048 100.124 38.7879C100.579 38.8069 101.015 38.9397 101.42 39.1608C102.425 39.7298 103.076 40.8234 103.259 41.9548ZM84.309 9.2756C83.342 9.02267 82.2802 9.10481 81.4207 9.61669C81.0286 9.85059 80.6938 10.1604 80.4471 10.546C78.4116 13.7252 83.7024 17.1892 85.5423 13.6178C85.7509 13.2134 85.8579 12.7708 85.8646 12.3093C85.8834 11.1275 85.232 9.99609 84.309 9.2756ZM103.588 31.6136C102.968 32.8147 101.856 33.7503 100.44 34.1041C99.0242 34.4582 97.602 34.1547 96.4896 33.3899C97.1091 32.1889 98.2215 31.2533 99.6375 30.8994C101.053 30.5455 102.476 30.8488 103.588 31.6136ZM102.526 31.8856C101.963 32.6186 101.173 33.1435 100.257 33.3709C99.3402 33.5985 98.3926 33.5099 97.5577 33.1242C98.1204 32.391 98.9172 31.8663 99.8273 31.6389C100.737 31.4053 101.685 31.4999 102.526 31.8856ZM93.5696 14.2626C92.2167 14.1995 90.8514 14.6989 89.8397 15.7419C88.8289 16.791 88.3794 18.1756 88.4874 19.5217C89.8339 19.585 91.205 19.0857 92.2167 18.0426C93.228 16.9933 93.6765 15.6092 93.5696 14.2626ZM92.8108 15.0528C91.8944 15.173 91.0407 15.5964 90.3899 16.2728C89.739 16.949 89.3406 17.815 89.2524 18.7316C90.1692 18.6114 91.0224 18.1881 91.6733 17.5117C92.3242 16.8353 92.7221 15.9696 92.8108 15.0528ZM34.4939 63.7685C34.5314 62.9025 34.6394 61.8469 34.9111 60.8607C35.878 61.0062 36.8261 60.9619 37.6605 60.589C38.6592 60.1465 39.7211 58.7749 38.8486 57.833C38.4632 56.6132 36.7437 56.8406 35.8655 57.4854C35.1259 58.0226 34.6138 58.8255 34.2535 59.7295C33.2673 59.4703 32.2941 59.0404 31.529 58.6359C32.5716 54.9952 35.9281 52.2139 39.841 53.0799C41.1938 53.3769 42.5717 54.0658 43.7284 55.014C43.9688 56.4932 43.8802 58.0291 43.463 59.3501C42.2557 63.1679 38.1727 64.6848 34.4939 63.7685ZM35.2334 59.9189C35.5176 59.2425 35.9098 58.661 36.4407 58.2753C36.6811 58.0983 37.5276 57.7569 37.8373 58.0036L37.9703 58.3387L38.1977 58.6231C38.2676 59.0151 37.5406 59.5775 37.2689 59.6977C36.6618 59.9632 35.9604 60.0075 35.2334 59.9189ZM28.8938 41.4174C29.2035 40.6085 29.7532 39.8941 30.5053 39.4706C30.9037 39.243 31.3397 39.1165 31.8012 39.0912C35.4107 38.9269 36.011 44.7359 32.0224 44.5463C31.5671 44.5273 31.1311 44.3948 30.7264 44.1734C29.7277 43.6172 29.0831 42.5363 28.8938 41.4174ZM47.5402 74.5329C48.5452 74.8299 49.6764 74.7731 50.5807 74.2359C50.9723 74.002 51.3072 73.686 51.5538 73.3003C53.6274 70.064 47.8876 66.4546 46.0486 70.0009C45.84 70.4053 45.7326 70.8478 45.7259 71.3091C45.7071 72.6051 46.4847 73.8314 47.5402 74.5329ZM28.4129 52.2327C29.0325 51.0316 30.1449 50.0963 31.5608 49.7422C32.9763 49.3883 34.3985 49.6916 35.5114 50.4566C34.8918 51.6575 33.7794 52.5931 32.3635 52.9472C30.9475 53.3008 29.5254 53.0038 28.4129 52.2327ZM29.4748 51.9672C30.0375 51.234 30.8276 50.7093 31.7444 50.4817C32.6545 50.2541 33.6026 50.3427 34.4433 50.7284C33.8806 51.4616 33.0905 51.9863 32.1741 52.2137C31.2641 52.4413 30.3155 52.3527 29.4748 51.9672ZM38.4319 69.5899C39.7779 69.6531 41.1495 69.1537 42.1612 68.1107C43.1725 67.0616 43.6277 65.677 43.5203 64.3309C42.168 64.2676 40.8026 64.7669 39.7909 65.81C38.7729 66.8595 38.3239 68.2436 38.4319 69.5899ZM39.1902 68.7998C40.107 68.6796 40.9534 68.2562 41.6111 67.58C42.2624 66.9036 42.6604 66.0376 42.749 65.121C41.8322 65.2412 40.9852 65.6645 40.3281 66.3409C39.6772 67.011 39.2783 67.8833 39.1902 68.7998ZM31.7507 25.0148C32.5152 24.6166 33.4889 24.1804 34.4751 23.9212C34.8292 24.8252 35.3471 25.6279 36.0866 26.1653C36.9716 26.8099 38.691 27.0375 39.0702 25.8177C39.9364 24.8758 38.8741 23.5042 37.8754 23.0552C37.041 22.6886 36.0866 22.6445 35.1259 22.7835C34.8537 21.7973 34.7463 20.7355 34.7087 19.876C38.3813 18.9594 42.471 20.47 43.6783 24.2943C44.0951 25.6153 44.19 27.1512 43.9438 28.6305C42.7803 29.5786 41.4087 30.2676 40.0564 30.5646C36.1497 31.4368 32.7932 28.6556 31.7507 25.0148ZM35.4545 23.7316C36.1815 23.643 36.883 23.6875 37.4832 23.9527C37.7554 24.0729 38.4824 24.6354 38.4126 25.0276L38.1914 25.3121L38.0585 25.6471C37.7554 25.9001 36.908 25.5522 36.6681 25.3752C36.1372 24.9893 35.7455 24.4015 35.4545 23.7316ZM47.2497 9.30065C48.3621 8.80129 49.74 8.78251 50.7955 9.40808C51.1872 9.64198 51.522 9.95827 51.7687 10.3437C53.9242 13.7002 47.8563 17.1261 46.0419 13.618C45.8333 13.2136 45.7259 12.7711 45.7196 12.3095C45.7071 11.1403 46.3454 10.0214 47.2497 9.30065ZM38.6973 13.9784C40.0434 13.9151 41.415 14.4146 42.4267 15.4574C43.4379 16.5067 43.8869 17.8848 43.7795 19.2374C42.433 19.3008 41.0614 18.8012 40.0496 17.7521C39.0384 16.7088 38.5899 15.3247 38.6973 13.9784ZM39.4624 14.7685C40.3787 14.8887 41.2324 15.3122 41.8833 15.9884C42.5341 16.6648 42.9326 17.5307 43.0207 18.4536C42.1039 18.3334 41.2507 17.9101 40.5998 17.2337C39.9427 16.5508 39.5505 15.6851 39.4624 14.7685ZM28.6784 31.3294C29.298 32.5304 30.4104 33.4658 31.8258 33.8199C33.2417 34.1738 34.6639 33.8705 35.7768 33.1057C35.1573 31.9046 34.0448 30.969 32.6289 30.6214C31.213 30.2611 29.7908 30.5646 28.6784 31.3294ZM29.7402 31.5948C30.3029 32.3281 31.093 32.8527 32.0098 33.0801C32.9262 33.3075 33.8743 33.2191 34.7087 32.8335C34.146 32.1005 33.3497 31.5756 32.4396 31.3482C31.5295 31.1205 30.5809 31.2154 29.7402 31.5948ZM100.39 58.3261C99.6249 58.7306 98.6513 59.1603 97.6651 59.4195C97.311 58.5157 96.7926 57.7131 96.0531 57.1757C95.1748 56.5311 93.4491 56.2969 93.07 57.5233C92.2037 58.4649 93.266 59.843 94.2648 60.2855C95.0992 60.6584 96.0468 60.7027 97.0142 60.5575C97.2864 61.5434 97.3934 62.6055 97.4314 63.4649C93.7589 64.3815 89.6691 62.8709 88.4618 59.0401C88.0446 57.7191 87.956 56.1832 88.1964 54.7039C89.3594 53.7558 90.731 53.0669 92.0838 52.7699C95.9967 51.9041 99.347 54.6914 100.39 58.3261ZM96.6856 59.6093C95.9587 59.6977 95.2567 59.6534 94.6564 59.388C94.3847 59.2678 93.6577 58.7053 93.7276 58.3134L93.9487 58.0351L94.0812 57.7001C94.3847 57.4471 95.2317 57.795 95.4716 57.972C96.0092 58.3514 96.4014 58.9392 96.6856 59.6093ZM84.4988 74.1978C83.4683 74.5392 82.2802 74.4886 81.3446 73.9324C80.9525 73.6987 80.6176 73.3889 80.3714 73.0033C78.2661 69.7289 83.753 66.5432 85.5418 70.0072C85.7504 70.4116 85.8579 70.8541 85.8641 71.3156C85.8834 72.4155 85.3207 73.4711 84.4988 74.1978ZM93.4491 69.3625C92.0963 69.4257 90.731 68.9263 89.7197 67.8833C88.708 66.8402 88.2595 65.4496 88.3669 64.1035C89.7135 64.0402 91.0851 64.5395 92.0963 65.5888C93.108 66.6319 93.5565 68.016 93.4491 69.3625ZM92.6845 68.5724C91.7677 68.4522 90.9145 68.0288 90.2636 67.3524C89.606 66.6762 89.2144 65.8102 89.1257 64.8936C90.0425 65.0138 90.8957 65.4371 91.5466 66.1135C92.2042 66.7896 92.5959 67.6556 92.6845 68.5724ZM103.468 52.0116C102.848 50.8105 101.736 49.8749 100.32 49.5273C98.9042 49.1735 97.482 49.4767 96.3696 50.2415C96.9892 51.4426 98.1078 52.3782 99.5175 52.7323C100.933 53.0797 102.355 52.7764 103.468 52.0116ZM102.399 51.7459C101.837 51.0126 101.04 50.488 100.13 50.2606C99.2202 50.0329 98.2721 50.1216 97.4314 50.507C97.9937 51.2402 98.7905 51.7649 99.7006 51.9923C100.617 52.2199 101.565 52.125 102.399 51.7459ZM75.7696 79.5077C76.4961 78.37 76.7495 76.9353 76.3506 75.5381C75.9459 74.135 74.9795 73.0541 73.7529 72.4789C73.0259 73.6166 72.773 75.0515 73.1714 76.4482C73.5761 77.8453 74.5497 78.9259 75.7696 79.5077ZM75.4661 78.4584C75.8202 77.6049 75.877 76.657 75.6178 75.7467C75.3586 74.8427 74.8089 74.0653 74.0564 73.5279C73.7023 74.3814 73.6454 75.3295 73.9046 76.2333C74.1643 77.1434 74.714 77.921 75.4661 78.4584ZM75.7696 4.11776C76.4961 5.25546 76.7495 6.68415 76.3506 8.08731C75.9459 9.49047 74.9795 10.5713 73.7529 11.1528C73.0259 10.0151 72.773 8.58016 73.1714 7.18327C73.5761 5.77385 74.5497 4.69902 75.7696 4.11776ZM75.4661 5.16681C75.8202 6.02027 75.877 6.9684 75.6178 7.87244C75.3586 8.77624 74.8089 9.55358 74.0564 10.091C73.7023 9.23778 73.6454 8.28965 73.9046 7.37935C74.1643 6.48181 74.714 5.70423 75.4661 5.16681ZM55.7322 79.5077C55.0052 78.37 54.7523 76.9353 55.1507 75.5381C55.5487 74.135 56.5223 73.0541 57.7422 72.4789C58.4692 73.6166 58.7221 75.0515 58.3237 76.4482C57.9253 77.8453 56.9521 78.9259 55.7322 79.5077ZM56.0353 78.4584C55.6812 77.6049 55.6243 76.657 55.8835 75.7467C56.1432 74.8427 56.6929 74.0653 57.4449 73.5279C57.799 74.3814 57.8559 75.3295 57.5967 76.2333C57.338 77.1434 56.7878 77.921 56.0353 78.4584ZM55.7322 4.11776C55.0052 5.25546 54.7523 6.68415 55.1507 8.08731C55.5487 9.49047 56.5223 10.5713 57.7422 11.1528C58.4692 10.0151 58.7221 8.58016 58.3237 7.18327C57.9253 5.77385 56.9521 4.69902 55.7322 4.11776ZM56.0353 5.16681C55.6812 6.02027 55.6243 6.9684 55.8835 7.87244C56.1432 8.77624 56.6929 9.55358 57.4449 10.091C57.799 9.23778 57.8559 8.28965 57.5967 7.37935C57.338 6.48181 56.7878 5.70423 56.0353 5.16681ZM62.8307 80.0068C63.5639 79.5455 64.4234 78.9197 65.1374 78.1929C64.5308 77.4344 64.0948 76.5809 63.9999 75.6771C63.8862 74.5898 64.5433 72.9843 65.795 73.2625C67.0466 72.9843 67.7038 74.5898 67.5901 75.6771C67.4952 76.5809 67.0524 77.4279 66.4521 78.1929C67.1729 78.9197 68.0328 79.5455 68.7593 80.0068C71.3888 77.2824 72.1221 72.9843 69.4169 70.0259C68.4813 69.0022 67.1979 68.1612 65.795 67.6241C64.3916 68.1552 63.1086 69.0019 62.173 70.0259C59.4679 72.9843 60.2007 77.2829 62.8307 80.0068ZM65.795 77.4406C66.2373 76.8591 66.547 76.2206 66.6169 75.5697C66.6482 75.2724 66.522 74.3686 66.1554 74.2296L65.795 74.28L65.4409 74.2296C65.0675 74.3624 64.9476 75.2724 64.9794 75.5697C65.0429 76.2206 65.359 76.8591 65.795 77.4406ZM65.795 6.18456C65.3522 6.77232 65.0425 7.39814 64.9731 8.05551C64.9418 8.35277 65.068 9.25657 65.4346 9.39556L65.7887 9.34521L66.1491 9.39556C66.5157 9.25657 66.6419 8.35277 66.6106 8.05551C66.547 7.39814 66.2373 6.77232 65.795 6.18456Z" fill="#CCAF6B"/>
<path fill-rule="evenodd" clip-rule="evenodd" d="M54.8347 20.3245C55.0751 18.9973 54.7591 17.5751 53.8548 16.4374C52.951 15.2932 51.6362 14.6673 50.2897 14.598C50.056 15.9252 50.3658 17.3477 51.2696 18.4854C52.1739 19.6291 53.4887 20.2549 54.8347 20.3245ZM53.2613 16.9049C53.849 17.6444 54.1588 18.542 54.1525 19.4648C53.2545 19.2562 52.4456 18.7506 51.8579 18.0111C51.2701 17.2778 50.9671 16.3738 50.9671 15.4509C51.8704 15.6598 52.673 16.1654 53.2613 16.9049Z" fill="#CCAF6B"/>
<path fill-rule="evenodd" clip-rule="evenodd" d="M81.7373 68.8441C81.971 67.5168 81.6612 66.0944 80.7574 64.9567C79.8531 63.8127 78.5383 63.1869 77.1918 63.1175C76.9514 64.4448 77.2679 65.867 78.1717 67.0047C79.076 68.1424 80.3907 68.7744 81.7373 68.8441ZM80.1629 65.4242C80.7444 66.1575 81.0541 67.0615 81.0541 67.9843C80.1566 67.7757 79.3472 67.2699 78.7662 66.5304C78.178 65.7908 77.8682 64.8933 77.8749 63.9705C78.7725 64.1791 79.5751 64.6847 80.1629 65.4242Z" fill="#CCAF6B"/>
<path fill-rule="evenodd" clip-rule="evenodd" d="M97.2104 41.7398C96.4834 40.6021 95.2886 39.774 93.8476 39.5529C92.4062 39.3315 91.0158 39.7612 89.9795 40.6274C90.706 41.7651 91.9008 42.5996 93.3418 42.8207C94.7827 43.0356 96.1736 42.6058 97.2104 41.7398ZM93.7339 40.2986C94.6628 40.4441 95.504 40.8929 96.1298 41.5756C95.3267 42.0369 94.3911 42.2139 93.4622 42.0687C92.5334 41.9232 91.6922 41.4744 91.0664 40.7917C91.8627 40.3302 92.7983 40.1596 93.7339 40.2986Z" fill="#CCAF6B"/>
<path fill-rule="evenodd" clip-rule="evenodd" d="M42.0286 42.2962C41.2511 41.19 40.0187 40.4125 38.571 40.2607C37.1232 40.1029 35.7521 40.5958 34.7529 41.5061C35.5305 42.612 36.7629 43.3833 38.2106 43.5476C39.6583 43.6993 41.0299 43.2065 42.0286 42.2962ZM38.4886 41.013C39.4242 41.1139 40.2837 41.5249 40.9413 42.1822C40.1574 42.6753 39.2344 42.8967 38.2988 42.7893C37.3632 42.6881 36.5037 42.2709 35.8465 41.6263C36.6241 41.1267 37.5535 40.9118 38.4886 41.013Z" fill="#CCAF6B"/>
<path fill-rule="evenodd" clip-rule="evenodd" d="M54.2911 62.9783C52.9513 63.1613 51.6929 63.8946 50.884 65.1019C50.0751 66.3092 49.8791 67.757 50.2269 69.0589C51.5667 68.8819 52.8246 68.1486 53.6335 66.9351C54.4366 65.7215 54.6327 64.2803 54.2911 62.9783ZM51.5166 65.5191C52.0345 64.7355 52.7996 64.1666 53.6783 63.8821C53.7539 64.8049 53.5198 65.7215 52.9956 66.5053C52.471 67.2892 51.7122 67.8579 50.8339 68.1424C50.7578 67.2258 50.992 66.303 51.5166 65.5191Z" fill="#CCAF6B"/>
<path fill-rule="evenodd" clip-rule="evenodd" d="M81.6798 14.6988C80.34 14.8758 79.0816 15.6091 78.2727 16.8227C77.4638 18.036 77.2677 19.4712 77.6156 20.7795C78.9491 20.6024 80.2133 19.8692 81.0222 18.6558C81.832 17.4483 82.0276 16.0073 81.6798 14.6988ZM78.9053 17.2462C79.4299 16.4626 80.1945 15.8936 81.0732 15.6154C81.1494 16.5382 80.9152 17.4548 80.3911 18.2386C79.8664 19.0224 79.1076 19.5912 78.2294 19.8759C78.1465 18.9528 78.3806 18.03 78.9053 17.2462Z" fill="#CCAF6B"/>
<path fill-rule="evenodd" clip-rule="evenodd" d="M65.998 20.0717C53.9884 20.0717 44.26 29.8061 44.26 41.8095C44.26 53.8193 53.9942 63.5472 65.998 63.5472C78.0013 63.5472 87.736 53.813 87.736 41.8095C87.7422 29.8061 78.0076 20.0717 65.998 20.0717ZM65.998 21.3046C77.3254 21.3046 86.5094 30.4888 86.5094 41.816C86.5094 53.1429 77.3254 62.3274 65.998 62.3274C54.6711 62.3274 45.4866 53.1429 45.4866 41.816C45.4929 30.4825 54.6706 21.3046 65.998 21.3046Z" fill="#CCAF6B"/>
<path fill-rule="evenodd" clip-rule="evenodd" d="M65.9976 17.3537C52.4898 17.3537 41.542 28.3017 41.542 41.8093C41.542 55.3172 52.4898 66.265 65.9976 66.265C79.506 66.265 90.4538 55.3172 90.4538 41.8093C90.4533 28.308 79.5055 17.3537 65.9976 17.3537ZM65.9976 18.1438C79.0695 18.1438 89.6699 28.7377 89.6699 41.8093C89.6699 54.881 79.0695 65.4749 65.9976 65.4749C52.9262 65.4749 42.3321 54.881 42.3321 41.8093C42.3321 28.7442 52.9262 18.1438 65.9976 18.1438Z" fill="#CCAF6B"/>
<path fill-rule="evenodd" clip-rule="evenodd" d="M65.7952 11.4941C66.6735 11.4941 67.3817 12.2021 67.3817 13.0809C67.3817 13.9594 66.6735 14.6673 65.7952 14.6673C64.9227 14.6673 64.2087 13.9594 64.2087 13.0809C64.2087 12.2086 64.9227 11.4941 65.7952 11.4941Z" fill="#CCAF6B"/>
<path fill-rule="evenodd" clip-rule="evenodd" d="M48.9372 10.4132C49.7591 10.4132 50.4225 11.0768 50.4225 11.8985C50.4225 12.7199 49.7591 13.3838 48.9372 13.3838C48.1158 13.3838 47.4519 12.7199 47.4519 11.8985C47.4519 11.0768 48.1158 10.4132 48.9372 10.4132Z" fill="#CCAF6B"/>
<path fill-rule="evenodd" clip-rule="evenodd" d="M31.9277 40.3934C32.7496 40.3934 33.413 41.0573 33.413 41.879C33.413 42.7006 32.7496 43.3643 31.9277 43.3643C31.1058 43.3643 30.4424 42.7004 30.4424 41.879C30.4424 41.0573 31.1058 40.3934 31.9277 40.3934Z" fill="#CCAF6B"/>
<path fill-rule="evenodd" clip-rule="evenodd" d="M82.9506 10.7104C83.7725 10.7104 84.4359 11.3741 84.4359 12.1957C84.4359 13.0174 83.7725 13.681 82.9506 13.681C82.1287 13.681 81.4653 13.0172 81.4653 12.1957C81.4649 11.3738 82.1287 10.7104 82.9506 10.7104Z" fill="#CCAF6B"/>
<path fill-rule="evenodd" clip-rule="evenodd" d="M100.137 40.2797C100.959 40.2797 101.623 40.9434 101.623 41.765C101.623 42.5867 100.959 43.2503 100.137 43.2503C99.3155 43.2503 98.6521 42.5867 98.6521 41.765C98.6516 40.9434 99.3155 40.2797 100.137 40.2797Z" fill="#CCAF6B"/>
<path fill-rule="evenodd" clip-rule="evenodd" d="M82.8879 70.0387C83.7093 70.0387 84.3732 70.7026 84.3732 71.524C84.3732 72.3459 83.7093 73.0095 82.8879 73.0095C82.066 73.0095 81.4021 72.3457 81.4021 71.524C81.4084 70.7026 82.0722 70.0387 82.8879 70.0387Z" fill="#CCAF6B"/>
<path fill-rule="evenodd" clip-rule="evenodd" d="M48.7729 70.1589C49.5948 70.1589 50.2582 70.8228 50.2582 71.6442C50.2582 72.4659 49.5948 73.1295 48.7729 73.1295C47.9515 73.1295 47.2876 72.4659 47.2876 71.6442C47.2876 70.8228 47.9515 70.1589 48.7729 70.1589Z" fill="#CCAF6B"/>
<path fill-rule="evenodd" clip-rule="evenodd" d="M91.0669 25.6594C91.9457 25.6594 92.6534 26.3674 92.6534 27.2461C92.6534 28.1246 91.9457 28.8326 91.0669 28.8326C90.1887 28.8326 89.4805 28.1246 89.4805 27.2461C89.4805 26.3674 90.1882 25.6594 91.0669 25.6594Z" fill="#CCAF6B"/>
<path fill-rule="evenodd" clip-rule="evenodd" d="M90.9024 54.7231C91.7749 54.7231 92.4889 55.4308 92.4889 56.3096C92.4889 57.1818 91.7807 57.8963 90.9024 57.8963C90.0241 57.8963 89.3159 57.1883 89.3159 56.3096C89.3154 55.4308 90.0299 54.7231 90.9024 54.7231Z" fill="#CCAF6B"/>
<path fill-rule="evenodd" clip-rule="evenodd" d="M65.6941 69.1981C66.5724 69.1981 67.2806 69.906 67.2806 70.7848C67.2806 71.657 66.5724 72.3712 65.6941 72.3712C64.8159 72.3712 64.1077 71.6635 64.1077 70.7848C64.1077 69.906 64.8217 69.1981 65.6941 69.1981Z" fill="#CCAF6B"/>
<path fill-rule="evenodd" clip-rule="evenodd" d="M41.1058 54.7989C41.9782 54.7989 42.6922 55.5069 42.6922 56.3856C42.6922 57.2641 41.9845 57.9721 41.1058 57.9721C40.2275 57.9721 39.5193 57.2641 39.5193 56.3856C39.5256 55.5069 40.2338 54.7989 41.1058 54.7989Z" fill="#CCAF6B"/>
<path fill-rule="evenodd" clip-rule="evenodd" d="M41.4659 25.4382C42.3446 25.4382 43.0523 26.1459 43.0523 27.0246C43.0523 27.9034 42.3446 28.6114 41.4659 28.6114C40.5876 28.6114 39.8794 27.9034 39.8794 27.0246C39.8794 26.1459 40.5876 25.4382 41.4659 25.4382Z" fill="#CCAF6B"/>
<path fill-rule="evenodd" clip-rule="evenodd" d="M63.9814 19.6228C63.052 19.705 62.7297 18.3965 61.7691 18.5229C60.8523 18.7378 60.9534 20.0841 60.0434 20.337C59.1453 20.5835 58.5956 19.3509 57.6731 19.6479C56.8068 20.0208 57.1484 21.3355 56.3015 21.7402C55.4608 22.1447 54.7025 21.0322 53.8425 21.4935C53.0587 22.0119 53.6276 23.2445 52.8626 23.8007C52.1043 24.3507 51.1624 23.3898 50.4041 23.9966C49.7214 24.6477 50.5053 25.7601 49.8544 26.4428C49.2098 27.1192 48.1036 26.3416 47.4653 27.0686C46.9151 27.8334 47.882 28.7815 47.3574 29.5716C46.8453 30.349 45.6192 29.7865 45.1196 30.6147C44.7149 31.4681 45.834 32.2264 45.4611 33.0989C45.0945 33.9584 43.786 33.6171 43.4449 34.5274C43.1987 35.4377 44.4374 35.9874 44.2288 36.9042C44.0202 37.8145 42.6741 37.7131 42.5031 38.674C42.4212 39.6158 43.7422 39.9319 43.6983 40.8737C43.6535 41.8028 42.3137 41.9483 42.3137 42.9152C42.4024 43.8571 43.7552 43.933 43.8814 44.8683C44.0081 45.7912 42.7121 46.1706 42.8827 47.125C43.1351 48.0353 44.4817 47.871 44.7727 48.7685C45.0637 49.6595 43.8559 50.2601 44.1912 51.1704C44.6021 52.0176 45.8981 51.6194 46.3466 52.4473C46.7894 53.269 45.7083 54.0781 46.2079 54.9125C46.7638 55.6711 47.9649 55.0453 48.5527 55.7848C49.1342 56.518 48.2178 57.5042 48.8557 58.2372C49.5384 58.8884 50.6132 58.0542 51.3209 58.6735C52.0228 59.2865 51.2959 60.4245 52.0546 61.031C52.8447 61.5494 53.7486 60.5379 54.5574 61.0248C55.3606 61.5051 54.8484 62.7565 55.7016 63.2118C56.5679 63.5786 57.2823 62.4282 58.1674 62.7567C59.0394 63.0855 58.7614 64.4066 59.684 64.7038C60.6008 64.9122 61.0999 63.6482 62.023 63.8125C62.9393 63.9768 62.9012 65.3294 63.8624 65.4561C64.8042 65.5002 65.0634 64.1664 66.0115 64.1664C66.9471 64.1664 67.1432 65.5002 68.1164 65.4561C69.052 65.3296 69.0708 63.9708 70.0001 63.8C70.9165 63.6357 71.3525 64.9061 72.3011 64.6975C73.1986 64.4005 72.9712 63.0667 73.8557 62.7317C74.734 62.4031 75.3854 63.5786 76.2829 63.1995C77.1106 62.7507 76.6558 61.4738 77.4647 60.9872C78.2678 60.5069 79.121 61.5497 79.9362 61.0187C80.6699 60.431 79.993 59.2552 80.7007 58.6357C81.4027 58.0226 82.4327 58.8949 83.1346 58.2247C83.7542 57.5105 82.8755 56.4802 83.4632 55.7407C84.0447 55.0074 85.214 55.6836 85.7829 54.9C86.2633 54.0909 85.214 53.2312 85.663 52.397C86.1057 51.5751 87.3762 52.0301 87.7996 51.1579C88.1282 50.2728 86.9464 49.6157 87.2374 48.7182C87.5279 47.8269 88.8552 48.0483 89.1144 47.1127C89.2787 46.1833 87.9957 45.7473 88.1224 44.8117C88.2486 43.8889 89.5947 43.8636 89.6834 42.8964C89.6834 41.9546 88.3373 41.7522 88.2992 40.8106C88.2549 39.8813 89.5827 39.6158 89.494 38.6487C89.3235 37.7196 87.9707 37.7637 87.7558 36.8473C87.5472 35.937 88.8051 35.4442 88.5459 34.5086C88.2111 33.6236 86.8833 33.9081 86.5167 33.0421C86.1505 32.1826 87.2943 31.4746 86.877 30.5959C86.3905 29.787 85.1388 30.3051 84.6209 29.515C84.1088 28.7377 85.1075 27.8339 84.5385 27.0438C83.9127 26.3358 82.7752 27.0688 82.1239 26.3862C81.4793 25.71 82.3007 24.6417 81.5992 23.9718C80.8597 23.384 79.8673 24.3131 79.1022 23.7569C78.3439 23.207 78.9693 22.0122 78.1604 21.475C77.3259 21.0325 76.517 22.1136 75.6633 21.7089C74.8231 21.3044 75.2211 20.0147 74.3298 19.6291C73.4323 19.3386 72.8257 20.5584 71.9152 20.3055C71.0114 20.0591 71.1756 18.7188 70.227 18.5039C69.2919 18.3777 68.9123 19.6862 67.9709 19.5975C67.0416 19.5154 66.9597 18.1688 65.9923 18.1248C65.062 18.1881 64.9165 19.5407 63.9814 19.6228ZM64.0315 20.1665C65.207 20.0591 65.4792 18.7125 66.0168 18.6872C66.5473 18.7125 66.7621 20.0526 67.9319 20.16C69.0949 20.2612 69.6195 18.9907 70.1504 19.0601C70.6688 19.1803 70.6375 20.5394 71.775 20.8489C72.9129 21.165 73.6394 20.002 74.1515 20.1663C74.6386 20.3746 74.3664 21.7084 75.4287 22.2205C76.4905 22.7327 77.4136 21.7149 77.8872 21.9741C78.3299 22.2711 77.8241 23.529 78.7785 24.2242C79.7329 24.9194 80.8327 24.0915 81.2437 24.4203C81.6171 24.7807 80.9021 25.9372 81.7178 26.7906C82.5334 27.6441 83.7532 27.0182 84.1073 27.4227C84.4234 27.8589 83.5003 28.8514 84.1517 29.8436C84.8025 30.8298 86.1173 30.4314 86.3953 30.8929C86.6231 31.367 85.5483 32.2076 86.0099 33.282C86.4714 34.3628 87.8367 34.2113 88.0261 34.7107C88.1648 35.2291 86.958 35.8421 87.2172 36.9926C87.4826 38.1431 88.8542 38.2315 88.9491 38.7624C88.9935 39.2933 87.6975 39.6852 87.7481 40.861C87.8044 42.0367 89.1322 42.3718 89.1322 42.909C89.0816 43.4399 87.7351 43.5916 87.5708 44.7609C87.419 45.8986 88.6644 46.4991 88.5695 47.0238C88.4245 47.5359 87.0717 47.4473 86.705 48.5662C86.3384 49.6913 87.4696 50.4687 87.2865 50.9745C87.0529 51.4549 85.7381 51.1198 85.1754 52.1628C84.6127 53.1994 85.5864 54.1728 85.3142 54.6341C84.9981 55.0641 83.7658 54.5013 83.0262 55.4242C82.293 56.347 83.0706 57.4722 82.7227 57.8831C82.3373 58.2498 81.2186 57.4722 80.3336 58.2498C79.4424 59.0273 80.0176 60.2727 79.5941 60.6138C79.1456 60.9046 78.1907 59.9439 77.1732 60.5507C76.162 61.151 76.4968 62.4848 76.0227 62.744C75.5299 62.9523 74.7586 61.8337 73.6524 62.2509C72.5463 62.6681 72.6412 64.0334 72.1353 64.204C71.6237 64.3177 71.0292 63.0851 69.8917 63.2937C68.7283 63.5023 68.5832 64.8676 68.0461 64.9432C67.5152 64.9623 67.1866 63.6475 66.0043 63.6475C64.8221 63.6475 64.4304 64.9625 63.8932 64.9432C63.3623 64.8676 63.2736 63.5148 62.1169 63.3062C60.9664 63.0976 60.3281 64.3174 59.8097 64.1975C59.3043 64.0329 59.4556 62.6804 58.3495 62.2694C57.2433 61.8522 56.4152 62.9458 55.9228 62.7372C55.455 62.4783 55.8467 61.1823 54.8292 60.5755C53.8179 59.9687 52.8067 60.8978 52.3577 60.6008C51.9409 60.2657 52.56 59.0584 51.6687 58.2808C50.7775 57.5035 49.6207 58.2368 49.2291 57.8636C48.8812 57.4592 49.7031 56.3846 48.9699 55.4618C48.2361 54.5389 46.9594 55.0508 46.6439 54.6146C46.3717 54.1533 47.3771 53.243 46.8144 52.2002C46.2517 51.1571 44.9114 51.4416 44.6715 50.955C44.4884 50.4557 45.6389 49.7352 45.2718 48.61C44.9052 47.4911 43.5336 47.5227 43.3881 47.0043C43.2936 46.4924 44.5515 45.9424 44.3993 44.8047C44.2413 43.6355 42.8827 43.4206 42.8384 42.8832C42.8442 42.3523 44.1719 42.0803 44.2225 40.9048C44.2731 39.7228 42.9771 39.274 43.0214 38.7368C43.1226 38.2122 44.4749 38.1869 44.7404 37.0304C44.9996 35.8799 43.8048 35.2035 43.9503 34.6851C44.1401 34.1858 45.4799 34.4007 45.9415 33.3135C46.403 32.2264 45.3474 31.3539 45.5811 30.8674C45.8596 30.4123 47.1358 30.8611 47.7871 29.8749C48.4385 28.8887 47.5535 27.8397 47.8695 27.4034C48.2236 26.999 49.3991 27.6751 50.221 26.8219C51.0362 25.9685 50.3598 24.7739 50.7457 24.401C51.1624 24.0722 52.2059 24.9445 53.1603 24.2493C54.1147 23.5541 53.6594 22.2581 54.1084 21.9611C54.5825 21.7082 55.4482 22.7577 56.5105 22.2393C57.5728 21.7274 57.3575 20.3746 57.8503 20.1598C58.3625 19.9952 59.0259 21.1775 60.1638 20.8612C61.3018 20.5452 61.3273 19.1736 61.8582 19.0534C62.4007 18.991 62.8622 20.2677 64.0315 20.1665Z" fill="#CCAF6B"/>
<path d="M124.93 107.752C124.175 107.752 123.664 107.216 123.664 106.545C123.664 105.991 123.983 105.563 124.519 105.563C124.997 105.563 125.341 105.907 125.341 106.377C125.341 106.855 125.006 107.199 124.561 107.199C124.075 107.199 123.79 106.846 123.731 106.503C123.731 107.207 124.234 107.685 124.93 107.685C125.861 107.685 126.431 106.93 126.935 105.614L127.404 104.389C127.446 104.28 127.497 104.146 127.497 104.037C127.497 103.869 127.396 103.743 127.077 103.743H126.96L124.276 96.078H123.278V96.0109H127.027V96.078H125.744L128.05 102.703L129.593 98.6527C129.769 98.1915 129.862 97.7302 129.862 97.336C129.862 96.6064 129.56 96.078 128.906 96.078H128.78V96.0109H131.723V96.078H131.665C130.734 96.078 130.231 97.1515 129.568 98.8959L127.019 105.58C126.49 106.964 125.911 107.752 124.93 107.752Z" fill="#CCAF6B"/>
<path d="M121.942 103.014L121.992 103.056C121.691 103.517 121.171 103.961 120.349 103.961C119.133 103.961 118.579 103.156 118.579 101.496V96.078H117.338V96.0109H118.579V94.5852C119.066 94.451 119.703 93.9226 119.971 93.4781V96.0109H121.951V96.078H119.971V102.527C119.971 103.425 120.315 103.743 120.81 103.743C121.338 103.743 121.741 103.332 121.942 103.014Z" fill="#CCAF6B"/>
<path d="M114.985 93.3607C114.985 93.8303 114.616 94.1742 114.172 94.1742C113.719 94.1742 113.358 93.8303 113.358 93.3607C113.358 92.891 113.719 92.5472 114.172 92.5472C114.616 92.5472 114.985 92.891 114.985 93.3607ZM114.876 95.8012V103.676H116.168V103.743H112.184V103.676H113.476V96.078H112.184V96.0109C113.291 96.0109 114.054 95.9606 114.876 95.8012Z" fill="#CCAF6B"/>
<path d="M109.646 98.5772V103.676H110.938V103.743H107.004V103.676H108.246V97.8476C108.246 96.556 107.759 96.0193 107.004 96.0193C105.461 96.0193 104.815 98.292 104.815 99.3488V103.676H106.048V103.743H102.123V103.676H103.415V96.078H102.123V96.0109C103.23 96.0109 104.002 95.9606 104.815 95.8012V98.6611C105.033 97.5205 105.662 95.8012 107.466 95.8012C108.875 95.8012 109.646 96.816 109.646 98.5772Z" fill="#CCAF6B"/>
<path d="M100.783 96.8495C100.783 97.4031 100.388 97.7469 99.9523 97.7469C99.5162 97.7469 99.122 97.4031 99.122 96.9334C99.122 96.4554 99.5078 96.1199 99.9271 96.1199C100.246 96.1199 100.539 96.296 100.682 96.5728C100.564 96.2038 100.237 95.8683 99.6419 95.8683C97.9814 95.8683 97.3188 98.4849 97.3188 100.548V103.676H98.6943V103.743H94.6016V103.676H95.8931V96.078H94.6016V96.0109C95.7254 96.0109 96.4969 95.9606 97.3188 95.8012V99.3739C97.5453 97.4785 98.2917 95.8012 99.6419 95.8012C100.355 95.8012 100.783 96.2625 100.783 96.8495Z" fill="#CCAF6B"/>
<path d="M92.8043 102.234L92.8546 102.267C92.3346 103.223 91.2276 103.961 89.9863 103.961C88.0742 103.961 86.1704 102.326 86.1704 99.8939C86.1704 97.5289 87.9735 95.8012 89.9612 95.8012C92.0746 95.8012 93.0391 97.6714 92.9384 99.4159H87.7052C87.6548 102.024 88.4013 103.794 90.2966 103.794C91.3618 103.794 92.3178 103.098 92.8043 102.234ZM87.7052 99.3488H91.3869C91.3953 99.2314 91.3953 99.1056 91.3953 98.9881C91.3953 97.5037 90.9592 95.8683 89.718 95.8683C88.4264 95.8683 87.8058 97.5289 87.7052 99.3488Z" fill="#CCAF6B"/>
<path d="M84.6609 103.014L84.7112 103.056C84.4093 103.517 83.8894 103.961 83.0675 103.961C81.8514 103.961 81.2979 103.156 81.2979 101.496V96.078H80.0566V96.0109H81.2979V94.5852C81.7843 94.451 82.4217 93.9226 82.6901 93.4781V96.0109H84.6693V96.078H82.6901V102.527C82.6901 103.425 83.0339 103.743 83.5287 103.743C84.0571 103.743 84.4596 103.332 84.6609 103.014Z" fill="#CCAF6B"/>
<path d="M78.1306 100.456L78.1726 99.6256H78.2397L78.0384 103.743H69.3079V103.676H70.8007V92.0692H69.3079V92.0021H77.9881L78.1223 95.9186H78.0552L78.0132 95.1722C77.921 93.5704 77.3255 92.0692 74.6082 92.0692H72.4445V97.8308H73.1573C73.5767 97.8308 73.9541 97.8056 74.1889 97.7469C74.994 97.554 75.4385 96.5896 75.4721 95.5664H75.5392V100.162H75.4721C75.4217 98.8624 75.0024 98.1579 74.2308 97.9734C73.9541 97.9063 73.5851 97.8979 73.1573 97.8979H72.4445V103.676H74.5915C77.2081 103.676 78.0384 102.242 78.1306 100.456Z" fill="#CCAF6B"/>
<path d="M61.9586 91.8763C62.3863 91.8763 62.6043 92.1447 62.7134 92.3879C62.5876 91.9098 62.1514 91.6499 61.6482 91.6499C60.6586 91.6499 59.9877 92.4801 59.9877 93.973C59.9877 94.6187 60.0967 95.34 60.298 96.0109H62.076V96.078H60.3064V103.676H61.7992V103.743H57.6143V103.676H58.9142V96.7573C58.9142 96.5225 58.9226 96.2961 58.931 96.078H57.6143V96.0109H58.9394C59.1155 93.193 60.298 91.5828 61.6482 91.5828C62.3108 91.5828 62.8056 92.0021 62.8056 92.6059C62.8056 93.1175 62.4534 93.5033 61.9669 93.5033C61.4805 93.5033 61.1367 93.1511 61.1367 92.6898C61.1367 92.2537 61.4721 91.8763 61.9586 91.8763Z" fill="#CCAF6B"/>
<path d="M52.2371 95.8012C54.1745 95.8012 56.0195 97.5037 56.0195 99.8855C56.0195 102.251 54.1745 103.961 52.2371 103.961C50.2998 103.961 48.4631 102.242 48.4631 99.8855C48.4631 97.5121 50.2998 95.8012 52.2371 95.8012ZM54.4848 99.8016C54.4848 97.8643 53.9983 95.8683 52.2539 95.8683C50.4927 95.8683 49.9979 97.8643 49.9979 99.7681C49.9979 102.024 50.5598 103.894 52.2371 103.894C53.9229 103.894 54.4848 102.016 54.4848 99.8016Z" fill="#CCAF6B"/>
<path d="M40.0436 98.5856V103.676H41.3435V103.743H37.3682V103.676H38.6514V97.7805C38.6514 96.5728 38.1817 96.0193 37.4269 96.0193C35.8419 96.0193 35.0703 98.3927 35.0703 99.5669V103.676H36.3618V103.743H32.3782V103.676H33.6697V92.0692H32.3782V92.0021C33.4852 92.0021 34.2568 91.9518 35.0703 91.7924V98.9211C35.2967 97.6547 36.0264 95.8012 37.8882 95.8012C39.2804 95.8012 40.0436 96.8076 40.0436 98.5856Z" fill="#CCAF6B"/>
<path d="M27.0884 98.703L30.2753 103.676H31.223V103.743H27.6335V103.676H28.6735L26.0988 99.7262L25.0588 100.8V103.676H26.3084V103.743H22.3667V103.676H23.6582V92.0692H22.3667V92.0021C23.4737 92.0021 24.2453 91.9518 25.0588 91.7924V100.707L27.5748 98.116C28.1283 97.5457 28.3464 97.0509 28.3464 96.6902C28.3464 96.3044 28.0948 96.078 27.7342 96.078H27.6671V96.0109H30.9211V96.078H30.8876C30.1495 96.078 28.9167 96.816 27.5916 98.1831L27.0884 98.703Z" fill="#CCAF6B"/>
<path d="M19.8959 98.5772V103.676H21.1874V103.743H17.2541V103.676H18.4953V97.8476C18.4953 96.556 18.0089 96.0193 17.2541 96.0193C15.7109 96.0193 15.0652 98.292 15.0652 99.3488V103.676H16.298V103.743H12.373V103.676H13.6646V96.078H12.373V96.0109C13.4801 96.0109 14.2517 95.9606 15.0652 95.8012V98.6611C15.2832 97.5205 15.9122 95.8012 17.7154 95.8012C19.1243 95.8012 19.8959 96.816 19.8959 98.5772Z" fill="#CCAF6B"/>
<path d="M5.62745 91.784L10.0472 103.676H11.2046V103.743H6.93577V103.676H8.24409L6.67579 99.4159H2.96888C2.516 100.724 2.33988 101.63 2.33988 102.267C2.33988 103.492 3.0192 103.676 3.75723 103.676H3.85787V103.743H0V103.676H0.0167733C1.06511 103.676 1.59347 103.156 2.49923 100.548L5.56875 91.784H5.62745ZM2.98565 99.3488H6.65063L4.77201 94.2581L2.99404 99.332C2.99404 99.3404 2.99404 99.3404 2.98565 99.3488Z" fill="#CCAF6B"/>
</svg>
